#!OML:ASF F:\VICON\USERDATA\INSTALL\rory3\rory3.ASF
:FULLY-SPECIFIED
:DEGREES
1641
root 0.942285 16.998 -1.78949 180.555 -162.853 -177.694
lowerback 10.8425 0.234893 -2.48879
upperback 0.0361073 0.0536991 0.941059
thorax -6.05639 0.1132 2.38439
lowerneck -18.1166 -8.75745 -12.8281
upperneck -25.6651 -8.6131 11.4031
head -3.9345 -3.71872 5.58704
rclavicle -5.41688e-015 4.37326e-015
rhumerus 7.89417 7.30145 -64.9804
rradius 56.9244
rwrist 2.85263
rhand -44.3197 -4.98259
rfingers 7.12502
rthumb -17.1289 -34.2475
lclavicle -5.41688e-015 4.37326e-015
lhumerus 2.56769 -10.7587 77.3935
lradius 70.2
lwrist 2.12191
lhand -20.6438 21.4932
lfingers 7.12502
lthumb 5.71827 51.3961
rfemur -27.528 -2.88188 14.7197
rtibia 50.7363
rfoot -18.4403 3.28099
rtoes -1.83685
lfemur -22.183 5.96863 -17.5832
ltibia 57.2978
lfoot -15.2057 -13.6418
ltoes -20.8083
1642
root 0.913393 16.9459 -1.75964 180.146 -162.952 -177.649
lowerback 10.6321 0.164824 -2.72681
upperback 0.156471 -0.0586489 1.01801
thorax -5.80405 0.0604841 2.61575
lowerneck -17.5586 -8.53629 -12.7708
upperneck -25.726 -8.42921 11.1911
head -4.06372 -3.63687 5.54258
rclavicle -3.53837e-014 2.78299e-015
rhumerus 11.6094 7.018 -63.4373
rradius 57.3658
rwrist 3.41679
rhand -44.9312 -4.85896
rfingers 7.12502
rthumb -17.7175 -34.0718
lclavicle -3.53837e-014 2.78299e-015
lhumerus 5.95928 -10.3684 76.267
lradius 71.0223
lwrist 2.94552
lhand -21.5287 21.1025
lfingers 7.12502
lthumb 4.86389 51.0267
rfemur -27.5259 -2.75617 14.7341
rtibia 51.9136
rfoot -19.1831 3.08324
rtoes -2.86466
lfemur -22.1864 6.45798 -17.745
ltibia 58.1946
lfoot -15.3359 -12.6086
ltoes -22.1939
1643
root 0.88922 16.8873 -1.72987 179.696 -163.188 -177.858
lowerback 10.4229 0.0408767 -2.60442
upperback 0.397366 -0.196038 1.13183
thorax -5.42352 -0.0185027 2.68365
lowerneck -17.3342 -8.37055 -12.7361
upperneck -25.5597 -8.27686 10.9655
head -4.07403 -3.56259 5.47312
rclavicle -2.98177e-016 7.15625e-015
rhumerus 15.4227 6.45211 -61.9664
rradius 57.8051
rwrist 4.09996
rhand -45.3177 -5.04217
rfingers 7.12502
rthumb -18.0893 -34.221
lclavicle -2.98177e-016 7.15625e-015
lhumerus 9.78213 -9.97935 74.94
lradius 71.5795
lwrist 3.49516
lhand -22.2054 21.7303
lfingers 7.12502
lthumb 4.21043 51.6684
rfemur -27.3548 -2.68033 14.9893
rtibia 53.0965
rfoot -19.992 2.93515
rtoes -2.60527
lfemur -21.945 6.85485 -17.5962
ltibia 59.2847
lfoot -15.7423 -11.6685
ltoes -24.6669
1644
root 0.865539 16.8154 -1.69688 179.213 -163.507 -178.004
lowerback 10.3866 -0.115942 -2.45386
upperback 0.529852 -0.383551 1.16979
thorax -5.25204 -0.118758 2.6645
lowerneck -17.2976 -8.24241 -12.7028
upperneck -25.0592 -8.13847 10.8294
head -3.94345 -3.49748 5.4096
rclavicle -3.34455e-014 -8.74653e-015
rhumerus 18.9794 5.88571 -60.5732
rradius 58.3653
rwrist 4.55694
rhand -45.6906 -5.06899
rfingers 7.12502
rthumb -18.448 -34.2142
lclavicle -3.34455e-014 -8.74653e-015
lhumerus 13.4724 -9.52611 73.5381
lradius 72.2404
lwrist 3.78377
lhand -22.4794 22.6886
lfingers 7.12502
lthumb 3.94581 52.6318
rfemur -27.1714 -2.66473 15.1662
rtibia 54.3188
rfoot -20.8138 2.76831
rtoes -2.58874
lfemur -21.5585 7.04833 -17.5172
ltibia 60.3317
lfoot -16.4635 -11.3902
ltoes -23.1361
1645
root 0.843311 16.7345 -1.65925 178.71 -163.861 -178.092
lowerback 10.4857 -0.288196 -2.33921
upperback 0.535291 -0.600119 1.18837
thorax -5.28888 -0.227516 2.65223
lowerneck -17.0964 -8.1277 -12.7182
upperneck -24.5748 -8.02932 10.7115
head -3.83396 -3.44639 5.36461
rclavicle -1.92324e-014 1.98785e-015
rhumerus 22.354 5.32429 -59.2441
rradius 58.898
rwrist 4.91637
rhand -45.9556 -5.05348
rfingers 7.12502
rthumb -18.703 -34.1744
lclavicle -1.92324e-014 1.98785e-015
lhumerus 16.8827 -9.00043 72.1538
lradius 72.9602
lwrist 4.1137
lhand -22.6191 23.2713
lfingers 7.12502
lthumb 3.81094 53.2169
rfemur -27.0181 -2.72023 15.3013
rtibia 55.5871
rfoot -21.6192 2.39654
rtoes -4.19084
lfemur -21.0926 7.23975 -17.4893
ltibia 61.2541
lfoot -17.6867 -10.7944
ltoes -22.8001
1646
root 0.817515 16.6552 -1.62007 178.204 -164.126 -178.029
lowerback 10.5425 -0.403179 -2.47814
upperback 0.528218 -0.770415 1.1951
thorax -5.31557 -0.307453 2.76403
lowerneck -16.7404 -7.96925 -12.6715
upperneck -24.2762 -7.89791 10.5181
head -3.81454 -3.38776 5.30021
rclavicle -2.28105e-014 3.97569e-016
rhumerus 25.8657 4.50928 -58.1842
rradius 59.1686
rwrist 5.53001
rhand -46.1504 -5.07278
rfingers 7.12502
rthumb -18.8903 -34.1755
lclavicle -2.28105e-014 3.97569e-016
lhumerus 20.4073 -8.3635 70.77
lradius 73.4597
lwrist 4.57939
lhand -22.829 23.5711
lfingers 7.12502
lthumb 3.60824 53.5203
rfemur -26.9154 -2.66276 15.2962
rtibia 56.8428
rfoot -22.4106 1.9788
rtoes -6.0211
lfemur -20.7372 7.32053 -17.4996
ltibia 61.9322
lfoot -18.6638 -10.1212
ltoes -21.6836
1647
root 0.786753 16.57 -1.5834 177.796 -164.343 -178.092
lowerback 10.5644 -0.487101 -2.58899
upperback 0.51219 -0.89244 1.25663
thorax -5.33415 -0.363634 2.91004
lowerneck -16.3728 -7.81471 -12.6948
upperneck -23.9797 -7.75449 10.3839
head -3.79248 -3.31952 5.26713
rclavicle -3.926e-014 1.19271e-015
rhumerus 29.3674 3.59925 -57.1463
rradius 59.3721
rwrist 5.97298
rhand -46.3323 -4.79727
rfingers 7.12502
rthumb -19.0653 -33.8828
lclavicle -3.926e-014 1.19271e-015
lhumerus 24.0775 -7.6255 69.4541
lradius 73.7128
lwrist 4.8729
lhand -23.0943 23.8115
lfingers 7.12502
lthumb 3.35203 53.7649
rfemur -26.8713 -2.44355 15.461
rtibia 58.0681
rfoot -23.2511 1.45242
rtoes -7.62406
lfemur -20.289 7.46564 -17.3717
ltibia 62.4185
lfoot -20.2427 -9.09589
ltoes -24.7143
1648
root 0.75151 16.4939 -1.54676 177.441 -164.614 -178.15
lowerback 10.5681 -0.504032 -2.70568
upperback 0.533668 -0.926987 1.29249
thorax -5.3089 -0.378177 3.01862
lowerneck -16.2072 -7.79242 -12.7456
upperneck -23.6318 -7.75076 10.288
head -3.70976 -3.31485 5.23475
rclavicle -2.59662e-014 4.77083e-015
rhumerus 32.6289 2.43359 -55.9564
rradius 59.7142
rwrist 6.11898
rhand -46.3191 -4.51306
rfingers 7.12502
rthumb -19.0525 -33.5999
lclavicle -2.59662e-014 4.77083e-015
lhumerus 27.962 -6.94024 68.2483
lradius 73.7598
lwrist 4.85645
lhand -23.2982 23.9486
lfingers 7.12502
lthumb 3.15511 53.905
rfemur -26.8035 -2.2707 15.6361
rtibia 59.1828
rfoot -24.1247 0.922571
rtoes -8.78265
lfemur -19.7529 7.39267 -17.2046
ltibia 62.7111
lfoot -21.4939 -8.77524
ltoes -26.0321
1649
root 0.717458 16.4271 -1.50204 177.137 -164.888 -178.117
lowerback 10.4858 -0.505609 -2.874
upperback 0.51563 -0.948795 1.26161
thorax -5.2781 -0.385525 3.08322
lowerneck -16.0468 -7.77083 -12.7818
upperneck -23.3316 -7.73279 10.2987
head -3.63578 -3.30707 5.23656
rclavicle 4.36332e-014 4.37326e-015
rhumerus 35.6315 1.16117 -54.9074
rradius 60.059
rwrist 6.60165
rhand -46.4019 -4.4552
rfingers 7.12502
rthumb -19.1322 -33.5342
lclavicle 4.36332e-014 4.37326e-015
lhumerus 31.8198 -6.24939 67.0092
lradius 73.6492
lwrist 4.74018
lhand -23.5696 23.9441
lfingers 7.12502
lthumb 2.89306 53.9042
rfemur -26.7194 -2.17216 15.7111
rtibia 60.1854
rfoot -25.0313 0.330212
rtoes -9.68618
lfemur -19.1731 7.16603 -17.1264
ltibia 62.862
lfoot -22.4915 -8.55517
ltoes -25.3837
1650
root 0.685691 16.3648 -1.44917 176.899 -165.153 -178.085
lowerback 10.3818 -0.594644 -3.03618
upperback 0.344737 -1.08454 1.25971
thorax -5.38676 -0.443633 3.19316
lowerneck -15.3501 -7.58538 -12.9175
upperneck -23.3402 -7.54127 10.3926
head -3.74128 -3.21692 5.31993
rclavicle -3.40916e-014 3.18055e-015
rhumerus 38.4134 0.222505 -54.0491
rradius 60.3563
rwrist 7.30404
rhand -46.8772 -4.4658
rfingers 7.12502
rthumb -19.5892 -33.4989
lclavicle -3.40916e-014 3.18055e-015
lhumerus 35.2355 -5.37634 65.705
lradius 73.4059
lwrist 4.35641
lhand -24.1571 23.2614
lfingers 7.12502
lthumb 2.32568 53.2284
rfemur -26.5862 -2.17653 15.7862
rtibia 61.0257
rfoot -25.8676 -0.217726
rtoes -9.84477
lfemur -18.5663 6.87992 -17.0387
ltibia 62.8639
lfoot -23.5678 -8.24225
ltoes -24.9722
1651
root 0.655987 16.3071 -1.39532 176.68 -165.537 -177.965
lowerback 10.2356 -0.794956 -3.28023
upperback 0.0946245 -1.37515 1.29842
thorax -5.53926 -0.572692 3.41489
lowerneck -14.2059 -7.35094 -13.2409
upperneck -23.5695 -7.32354 10.5006
head -3.97742 -3.10729 5.46307
rclavicle 1.77912e-014 8.34896e-015
rhumerus 41.158 -0.40992 -53.106
rradius 60.5188
rwrist 7.98817
rhand -47.8517 -4.30111
rfingers 7.12502
rthumb -20.5259 -33.236
lclavicle 1.77912e-014 8.34896e-015
lhumerus 38.287 -4.33698 64.4426
lradius 72.8882
lwrist 3.82006
lhand -25.4218 22.4437
lfingers 7.12502
lthumb 1.10423 52.4206
rfemur -26.4009 -2.26586 15.752
rtibia 61.711
rfoot -26.6235 -0.600364
rtoes -9.59771
lfemur -17.9809 6.44943 -17.0393
ltibia 62.7233
lfoot -24.6795 -8.29431
ltoes -25.0463
1652
root 0.625222 16.2639 -1.34005 176.511 -166.007 -177.846
lowerback 9.99925 -0.930698 -3.50349
upperback -0.0516451 -1.57586 1.2962
thorax -5.53827 -0.663209 3.56363
lowerneck -13.5847 -7.2747 -13.2504
upperneck -23.5569 -7.32248 10.3437
head -4.07097 -3.10995 5.43325
rclavicle -1.2014e-014 1.07344e-014
rhumerus 43.8769 -1.40761 -52.179
rradius 60.3692
rwrist 8.79415
rhand -48.9976 -3.8112
rfingers 7.12502
rthumb -21.6267 -32.6234
lclavicle -1.2014e-014 1.07344e-014
lhumerus 41.6737 -3.39465 63.2937
lradius 72.079
lwrist 3.26515
lhand -26.4461 22.2789
lfingers 7.12502
lthumb 0.114891 52.2587
rfemur -26.1402 -2.37145 15.7024
rtibia 62.2204
rfoot -27.3277 -1.01446
rtoes -9.98765
lfemur -17.3953 5.91469 -17.0629
ltibia 62.4429
lfoot -25.6203 -8.3832
ltoes -25.2433
1653
root 0.595256 16.2409 -1.2799 176.472 -166.391 -177.857
lowerback 9.68049 -0.981504 -3.58055
upperback -0.129722 -1.64401 1.26561
thorax -5.4339 -0.696469 3.57626
lowerneck -13.6662 -7.29713 -12.9098
upperneck -23.2027 -7.4222 9.99759
head -3.97023 -3.17228 5.24445
rclavicle 3.63527e-014 6.75868e-015
rhumerus 46.5536 -2.75859 -51.3884
rradius 59.9577
rwrist 9.75435
rhand -50.189 -2.98237
rfingers 7.12502
rthumb -22.7705 -31.6585
lclavicle 3.63527e-014 6.75868e-015
lhumerus 45.3345 -2.48051 62.0896
lradius 71.0387
lwrist 2.79003
lhand -27.0712 22.1175
lfingers 7.12502
lthumb -0.488853 52.0967
rfemur -25.8893 -2.44442 15.8116
rtibia 62.5436
rfoot -27.9036 -1.71366
rtoes -11.6501
lfemur -16.8471 5.4739 -16.9838
ltibia 62.033
lfoot -26.3746 -8.20339
ltoes -25.1283
1654
root 0.5683 16.2285 -1.22122 176.49 -166.708 -178.021
lowerback 9.33143 -1.13582 -3.54678
upperback -0.264146 -1.83107 1.34272
thorax -5.36082 -0.788399 3.65495
lowerneck -13.2156 -7.14499 -13.1652
upperneck -23.2539 -7.22176 10.1983
head -4.05012 -3.0687 5.37498
rclavicle -2.50841e-014 -4.77083e-015
rhumerus 49.304 -3.76577 -50.7529
rradius 59.3919
rwrist 10.7756
rhand -51.3909 -2.08824
rfingers 7.12502
rthumb -23.9235 -30.6179
lclavicle -2.50841e-014 -4.77083e-015
lhumerus 48.5925 -1.30687 60.6576
lradius 69.6516
lwrist 2.52166
lhand -27.9193 21.7769
lfingers 7.12502
lthumb -1.30799 51.7526
rfemur -25.6143 -2.47494 16.0972
rtibia 62.6779
rfoot -28.3534 -2.39952
rtoes -12.7093
lfemur -16.2999 5.19002 -16.7457
ltibia 61.5081
lfoot -26.9344 -8.20706
ltoes -24.3726
1655
root 0.543587 16.2311 -1.16047 176.435 -166.931 -178.032
lowerback 9.01476 -1.15646 -3.53648
upperback -0.244608 -1.85163 1.24716
thorax -5.16327 -0.805455 3.54016
lowerneck -13.2765 -7.18177 -13.2769
upperneck -23.401 -7.19513 10.5568
head -4.06254 -3.05696 5.51312
rclavicle 3.77101e-014 1.23246e-014
rhumerus 51.9613 -5.20106 -50.3021
rradius 58.6982
rwrist 11.8091
rhand -52.4897 -1.25189
rfingers 7.12502
rthumb -24.9769 -29.6393
lclavicle 3.77101e-014 1.23246e-014
lhumerus 52.0998 -0.275288 58.9304
lradius 68.0107
lwrist 2.32577
lhand -28.8396 21.4674
lfingers 7.12502
lthumb -2.19675 51.4358
rfemur -25.2057 -2.3904 16.1823
rtibia 62.5999
rfoot -28.6661 -2.84317
rtoes -12.9647
lfemur -15.6112 5.06017 -16.713
ltibia 60.8154
lfoot -27.2818 -8.10708
ltoes -24.2562
